<svg xmlns="http://www.w3.org/2000/svg" width="124" height="50" viewBox="0 0 124 50">
    <g fill="none" fill-rule="evenodd">
        <path fill="#474D5C" d="M46.533 36.357a11.91 11.91 0 0 1-1.559-.105c-3.943 6.991-11.433 11.725-20.01 11.725-12.664 0-22.967-10.313-22.967-22.99 0-12.677 10.303-22.99 22.968-22.99 7.536 0 14.236 3.654 18.426 9.283a9.76 9.76 0 0 1 .98-.321c.357-.095.717-.166 1.079-.228C40.935 4.251 33.438 0 24.965 0 11.199 0 0 11.209 0 24.987c0 13.778 11.2 24.987 24.965 24.987 9.684 0 18.093-5.552 22.23-13.64-.22.012-.44.023-.662.023"/>
        <path fill="#19202E" d="M51.006 17.517c-.372-.515-.878-.937-1.517-1.265-.64-.328-1.358-.492-2.157-.492-.426 0-.857.058-1.292.172-.435.116-.83.302-1.185.56a3.086 3.086 0 0 0-.865.959c-.223.381-.333.838-.333 1.37 0 .516.102.946.306 1.292.204.347.48.64.826.879.346.24.754.444 1.225.612.47.17.972.343 1.504.52.64.195 1.287.417 1.944.666a6.964 6.964 0 0 1 1.784.985c.533.408.967.919 1.305 1.53.337.613.506 1.39.506 2.33 0 .977-.183 1.825-.546 2.544a5.207 5.207 0 0 1-1.451 1.784c-.604.47-1.301.821-2.09 1.052-.79.23-1.603.346-2.437.346-1.19 0-2.34-.231-3.449-.692a6.844 6.844 0 0 1-2.756-2.05l2.05-1.732a5.013 5.013 0 0 0 1.785 1.598 4.96 4.96 0 0 0 2.423.613c.443 0 .888-.062 1.332-.187a3.74 3.74 0 0 0 1.211-.586 3.21 3.21 0 0 0 .892-.998c.23-.4.346-.883.346-1.452 0-.567-.12-1.042-.36-1.424a3.178 3.178 0 0 0-.971-.972 6.422 6.422 0 0 0-1.425-.679 99.66 99.66 0 0 0-1.717-.573 14.66 14.66 0 0 1-1.784-.652 6.17 6.17 0 0 1-1.571-.985 4.54 4.54 0 0 1-1.119-1.478c-.284-.586-.426-1.314-.426-2.184 0-.94.19-1.748.573-2.423a5.22 5.22 0 0 1 1.49-1.678 6.22 6.22 0 0 1 2.078-.972 9.1 9.1 0 0 1 2.33-.306c1.1 0 2.13.196 3.089.586.958.39 1.73.915 2.316 1.571l-1.864 1.81zM66.951 26.544c0-.586-.089-1.154-.266-1.704a4.363 4.363 0 0 0-.799-1.465 3.835 3.835 0 0 0-1.318-1.012c-.524-.248-1.132-.373-1.824-.373a4.018 4.018 0 0 0-3.09 1.385 4.674 4.674 0 0 0-.864 1.465 4.934 4.934 0 0 0-.307 1.73c0 .604.102 1.182.307 1.732.204.55.492 1.034.865 1.451.373.417.82.75 1.345.999a4.014 4.014 0 0 0 1.744.372c.692 0 1.3-.128 1.824-.386.523-.257.963-.6 1.318-1.025.355-.426.621-.914.799-1.465.177-.55.266-1.118.266-1.704zm-8.308 12.729H56.14V20.26h2.45v1.97h.08c.407-.674 1.005-1.229 1.792-1.664.789-.435 1.705-.653 2.75-.653.939 0 1.793.17 2.564.507.77.337 1.434.807 1.991 1.41a6.35 6.35 0 0 1 1.289 2.118c.301.808.452 1.673.452 2.596a7.47 7.47 0 0 1-.452 2.61 6.423 6.423 0 0 1-1.275 2.13 5.891 5.891 0 0 1-1.992 1.425c-.78.346-1.656.519-2.63.519a5.72 5.72 0 0 1-2.55-.586 4.613 4.613 0 0 1-1.886-1.651h-.08v8.282zM75.126 22.177c.302-.621.816-1.154 1.545-1.598.727-.443 1.544-.666 2.45-.666.816 0 1.517.138 2.103.413a4.266 4.266 0 0 1 1.465 1.106c.39.46.679 1.002.865 1.624.187.621.28 1.287.28 1.997v7.829H81.33v-6.994c0-.516-.04-1.006-.12-1.468a3.536 3.536 0 0 0-.44-1.228 2.426 2.426 0 0 0-.865-.855c-.364-.213-.839-.32-1.425-.32-.994 0-1.81.378-2.45 1.135-.639.756-.958 1.766-.958 3.03v6.7h-2.504V12.75h2.504v9.426h.053zM96.813 25.452a4.783 4.783 0 0 0-.253-1.398 3.213 3.213 0 0 0-.666-1.132 3.139 3.139 0 0 0-1.092-.759c-.435-.186-.945-.28-1.531-.28-.532 0-1.034.094-1.504.28a3.91 3.91 0 0 0-1.225.76c-.347.319-.63.696-.852 1.131-.223.436-.351.902-.387 1.398h7.51zm2.556 1.012v.426c0 .143-.01.284-.027.426H89.303a3.73 3.73 0 0 0 .36 1.494c.222.468.52.873.892 1.217a4.183 4.183 0 0 0 2.85 1.097c.851 0 1.588-.186 2.21-.56.62-.372 1.109-.824 1.464-1.357l1.757 1.411c-.674.895-1.469 1.554-2.383 1.976-.914.423-1.93.634-3.049.634-.958 0-1.846-.16-2.663-.48a6.157 6.157 0 0 1-2.104-1.344 6.233 6.233 0 0 1-1.384-2.09c-.338-.817-.506-1.722-.506-2.717 0-.976.164-1.877.493-2.703.33-.825.788-1.53 1.375-2.116a6.291 6.291 0 0 1 2.081-1.372 6.755 6.755 0 0 1 2.589-.493c.925 0 1.765.151 2.522.453a5.21 5.21 0 0 1 1.921 1.305c.525.568.93 1.256 1.214 2.064.285.808.427 1.717.427 2.73zM102.287 21.671a27.3 27.3 0 0 0-.08-1.411h2.37c.036.32.062.688.08 1.105.018.417.027.759.027 1.025h.08a4.367 4.367 0 0 1 1.557-1.797 4.079 4.079 0 0 1 2.304-.68c.39 0 .719.036.985.107l-.106 2.317a4.71 4.71 0 0 0-1.146-.133c-.603 0-1.127.11-1.57.332-.444.223-.813.52-1.106.893-.293.372-.51.803-.652 1.291a5.45 5.45 0 0 0-.213 1.531v6.63h-2.503v-9.905c0-.337-.01-.772-.027-1.305M120.741 25.452a4.783 4.783 0 0 0-.253-1.398 3.213 3.213 0 0 0-.665-1.132 3.139 3.139 0 0 0-1.092-.759c-.436-.186-.946-.28-1.532-.28-.532 0-1.034.094-1.504.28a3.91 3.91 0 0 0-1.225.76c-.346.319-.63.696-.852 1.131-.222.436-.35.902-.386 1.398h7.51zm2.557 1.012v.426c0 .143-.01.284-.027.426h-10.04a3.73 3.73 0 0 0 .36 1.494c.222.468.52.873.892 1.217a4.183 4.183 0 0 0 2.85 1.097c.852 0 1.588-.186 2.21-.56.621-.372 1.109-.824 1.464-1.357l1.758 1.411c-.675.895-1.47 1.554-2.383 1.976-.915.423-1.93.634-3.05.634-.958 0-1.846-.16-2.662-.48a6.157 6.157 0 0 1-2.104-1.344 6.233 6.233 0 0 1-1.385-2.09c-.337-.817-.505-1.722-.505-2.717 0-.976.164-1.877.493-2.703.329-.825.787-1.53 1.374-2.116a6.291 6.291 0 0 1 2.082-1.372 6.755 6.755 0 0 1 2.588-.493c.925 0 1.766.151 2.522.453a5.21 5.21 0 0 1 1.922 1.305c.524.568.929 1.256 1.214 2.064.284.808.427 1.717.427 2.73z"/>
    </g>
</svg>
