<svg xmlns="http://www.w3.org/2000/svg" xmlns:xlink="http://www.w3.org/1999/xlink" width="530" height="530" viewBox="0 0 530 530">
    <defs>
        <circle id="b" cx="265" cy="149" r="3"/>
        <filter id="a" width="533.3%" height="533.3%" x="-216.7%" y="-183.3%" filterUnits="objectBoundingBox">
            <feOffset dy="2" in="SourceAlpha" result="shadowOffsetOuter1"/>
            <feGaussianBlur in="shadowOffsetOuter1" result="shadowBlurOuter1" stdDeviation="4"/>
            <feColorMatrix in="shadowBlurOuter1" values="0 0 0 0 0.0901960784 0 0 0 0 0.545098039 0 0 0 0 0.925490196 0 0 0 0.6 0"/>
        </filter>
        <circle id="d" cx="265" cy="207" r="3"/>
        <filter id="c" width="533.3%" height="533.3%" x="-216.7%" y="-183.3%" filterUnits="objectBoundingBox">
            <feOffset dy="2" in="SourceAlpha" result="shadowOffsetOuter1"/>
            <feGaussianBlur in="shadowOffsetOuter1" result="shadowBlurOuter1" stdDeviation="4"/>
            <feColorMatrix in="shadowBlurOuter1" values="0 0 0 0 0.0901960784 0 0 0 0 0.545098039 0 0 0 0 0.925490196 0 0 0 0.6 0"/>
        </filter>
        <circle id="f" cx="265" cy="265" r="3"/>
        <filter id="e" width="533.3%" height="533.3%" x="-216.7%" y="-183.3%" filterUnits="objectBoundingBox">
            <feOffset dy="2" in="SourceAlpha" result="shadowOffsetOuter1"/>
            <feGaussianBlur in="shadowOffsetOuter1" result="shadowBlurOuter1" stdDeviation="4"/>
            <feColorMatrix in="shadowBlurOuter1" values="0 0 0 0 0.0901960784 0 0 0 0 0.545098039 0 0 0 0 0.925490196 0 0 0 0.6 0"/>
        </filter>
        <circle id="h" cx="265" cy="323" r="3"/>
        <filter id="g" width="533.3%" height="533.3%" x="-216.7%" y="-183.3%" filterUnits="objectBoundingBox">
            <feOffset dy="2" in="SourceAlpha" result="shadowOffsetOuter1"/>
            <feGaussianBlur in="shadowOffsetOuter1" result="shadowBlurOuter1" stdDeviation="4"/>
            <feColorMatrix in="shadowBlurOuter1" values="0 0 0 0 0.0901960784 0 0 0 0 0.545098039 0 0 0 0 0.925490196 0 0 0 0.6 0"/>
        </filter>
        <circle id="j" cx="265" cy="381" r="3"/>
        <filter id="i" width="533.3%" height="533.3%" x="-216.7%" y="-183.3%" filterUnits="objectBoundingBox">
            <feOffset dy="2" in="SourceAlpha" result="shadowOffsetOuter1"/>
            <feGaussianBlur in="shadowOffsetOuter1" result="shadowBlurOuter1" stdDeviation="4"/>
            <feColorMatrix in="shadowBlurOuter1" values="0 0 0 0 0.0901960784 0 0 0 0 0.545098039 0 0 0 0 0.925490196 0 0 0 0.6 0"/>
        </filter>
    </defs>
    <g fill="none" fill-rule="evenodd">
        <g fill-rule="nonzero">
            <path fill="#E8ECF1" d="M64.5 265h1c0 110.18 89.32 199.5 199.5 199.5v1c-110.733 0-200.5-89.767-200.5-200.5z"/>
            <path fill="#DFE2E5" d="M265 64.5v1C154.82 65.5 65.5 154.82 65.5 265h-1c0-110.733 89.767-200.5 200.5-200.5z"/>
            <g fill="#178BEC">
                <path d="M148.5 265h1c0 63.789 51.711 115.5 115.5 115.5v1c-64.341 0-116.5-52.159-116.5-116.5zM206.5 265h1c0 31.756 25.744 57.5 57.5 57.5v1c-32.309 0-58.5-26.191-58.5-58.5z"/>
            </g>
        </g>
        <g fill-rule="nonzero">
            <path fill="#7AB3E3" d="M265 .5v1C119.473 1.5 1.5 119.473 1.5 265h-1C.5 118.92 118.92.5 265 .5z"/>
            <path fill="#178BEC" d="M265 148.5v1c-63.789 0-115.5 51.711-115.5 115.5h-1c0-64.341 52.159-116.5 116.5-116.5zM265 206.5v1c-31.756 0-57.5 25.744-57.5 57.5h-1c0-32.309 26.191-58.5 58.5-58.5z"/>
            <path fill="#178BEC" d="M64.5 265.5v-1h201v1z"/>
        </g>
        <g transform="translate(37 236)">
            <circle cx="29" cy="29" r="27" fill="#FFF"/>
            <path fill="#474D5C" fill-rule="nonzero" d="M29 58C12.984 58 0 45.016 0 29S12.984 0 29 0s29 12.984 29 29-12.984 29-29 29zm0-2c14.912 0 27-12.088 27-27S43.912 2 29 2 2 14.088 2 29s12.088 27 27 27z"/>
            <path fill="#19202E" d="M20.247 32.233c0 1.225-.44 2.19-1.322 2.895-.882.705-2.108 1.058-3.679 1.058-1.447 0-2.727-.273-3.84-.817v-2.672c.915.408 1.69.696 2.323.863.634.167 1.214.25 1.74.25.63 0 1.115-.12 1.452-.361.337-.241.506-.6.506-1.076 0-.266-.075-.503-.223-.71a2.491 2.491 0 0 0-.654-.599c-.288-.191-.874-.497-1.758-.918-.829-.39-1.45-.764-1.865-1.123a4.214 4.214 0 0 1-.993-1.252c-.247-.476-.37-1.033-.37-1.67 0-1.2.406-2.143 1.22-2.83.813-.686 1.937-1.03 3.372-1.03.705 0 1.377.084 2.017.251.64.167 1.31.402 2.009.705l-.928 2.236c-.723-.297-1.322-.504-1.795-.621a5.778 5.778 0 0 0-1.396-.177c-.545 0-.962.127-1.253.38-.29.254-.436.585-.436.993 0 .254.059.475.177.664.117.188.304.37.56.547.257.176.865.493 1.824.95 1.268.607 2.137 1.215 2.607 1.824.47.61.705 1.356.705 2.24zm5.334-3.414h.947c.884 0 1.546-.174 1.985-.524.44-.35.659-.858.659-1.526 0-.674-.184-1.172-.552-1.494-.368-.321-.945-.482-1.73-.482H25.58v4.026zm6.494-2.152c0 1.46-.456 2.576-1.368 3.35-.912.772-2.21 1.159-3.892 1.159h-1.234V36h-2.876V22.437h4.333c1.645 0 2.896.354 3.753 1.062.856.708 1.284 1.764 1.284 3.168zM45.75 36h-2.866v-5.854h-5.372V36h-2.876V22.437h2.876v5.315h5.372v-5.315h2.866V36z"/>
        </g>
        <path fill="#7AB3E3" fill-rule="nonzero" d="M265 529.5v-1c145.527 0 263.5-117.973 263.5-263.5h1c0 146.08-118.42 264.5-264.5 264.5z"/>
        <g>
            <use fill="#000" filter="url(#a)" xlink:href="#b"/>
            <use fill="#178BEC" xlink:href="#b"/>
        </g>
        <g>
            <use fill="#000" filter="url(#c)" xlink:href="#d"/>
            <use fill="#178BEC" xlink:href="#d"/>
        </g>
        <g>
            <use fill="#000" filter="url(#e)" xlink:href="#f"/>
            <use fill="#178BEC" xlink:href="#f"/>
        </g>
        <g>
            <use fill="#000" filter="url(#g)" xlink:href="#h"/>
            <use fill="#178BEC" xlink:href="#h"/>
        </g>
        <g>
            <use fill="#000" filter="url(#i)" xlink:href="#j"/>
            <use fill="#178BEC" xlink:href="#j"/>
        </g>
        <path fill="#19202E" d="M301.952 149.03h4.729v6.451c-.774.252-1.516.431-2.228.537-.712.105-1.481.158-2.307.158-1.946 0-3.446-.576-4.5-1.727-1.055-1.152-1.583-2.776-1.583-4.874 0-2.068.595-3.687 1.785-4.856s2.827-1.753 4.913-1.753c1.342 0 2.613.258 3.814.773l-.738 1.75c-1.043-.481-2.086-.721-3.129-.721-1.371 0-2.455.43-3.252 1.292-.797.86-1.195 2.039-1.195 3.533 0 1.57.359 2.764 1.076 3.581.718.818 1.75 1.226 3.099 1.226.68 0 1.406-.085 2.18-.254v-3.314h-2.664v-1.802zm16.216 2.092c0 1.588-.407 2.827-1.222 3.718-.814.89-1.948 1.336-3.401 1.336-.908 0-1.711-.205-2.408-.615-.698-.41-1.234-1-1.609-1.767-.375-.768-.562-1.658-.562-2.672 0-1.576.404-2.807 1.213-3.691.808-.885 1.948-1.327 3.419-1.327 1.406 0 2.52.452 3.34 1.357.82.906 1.23 2.126 1.23 3.661zm-7.075 0c0 2.244.829 3.366 2.487 3.366 1.64 0 2.461-1.122 2.461-3.366 0-2.22-.826-3.331-2.478-3.331-.868 0-1.496.287-1.886.861-.39.575-.584 1.398-.584 2.47zM322.606 156h-2.065v-13.676h2.065V156zm6.232.176c-1.213 0-2.16-.44-2.839-1.319-.68-.878-1.02-2.112-1.02-3.7 0-1.594.345-2.834 1.033-3.722.689-.888 1.642-1.331 2.861-1.331 1.277 0 2.25.471 2.918 1.415h.105c-.1-.698-.149-1.248-.149-1.653v-3.542h2.074V156h-1.617l-.36-1.274h-.097c-.662.966-1.632 1.45-2.91 1.45zm.554-1.67c.85 0 1.467-.239 1.854-.716.387-.478.586-1.253.598-2.325v-.29c0-1.225-.2-2.095-.598-2.61-.398-.516-1.022-.774-1.872-.774-.727 0-1.286.294-1.679.883-.392.59-.589 1.429-.589 2.518 0 1.079.19 1.9.572 2.466.38.565.952.848 1.714.848zm12.278-11.356h3.814c1.77 0 3.049.258 3.837.774.788.515 1.182 1.33 1.182 2.443 0 .75-.193 1.374-.58 1.872-.387.498-.944.812-1.67.94v.089c.902.17 1.566.505 1.99 1.006.425.5.638 1.18.638 2.035 0 1.154-.403 2.058-1.209 2.711-.805.653-1.926.98-3.361.98h-4.641v-12.85zm2.1 5.309h2.022c.879 0 1.52-.14 1.925-.417.404-.279.606-.752.606-1.42 0-.603-.218-1.04-.655-1.31-.436-.269-1.129-.404-2.078-.404h-1.82v3.551zm0 1.705v4.07h2.233c.879 0 1.542-.17 1.99-.506.449-.337.673-.869.673-1.595 0-.668-.228-1.163-.686-1.486-.457-.322-1.15-.483-2.083-.483h-2.126zM359.416 156l-.413-1.354h-.07c-.47.592-.94.995-1.415 1.209-.475.214-1.084.32-1.829.32-.955 0-1.7-.257-2.236-.773-.536-.515-.805-1.245-.805-2.188 0-1.002.373-1.758 1.117-2.268.744-.51 1.878-.788 3.401-.835l1.679-.052v-.519c0-.621-.145-1.085-.435-1.393-.29-.308-.74-.461-1.35-.461-.497 0-.975.073-1.432.22-.457.146-.897.319-1.318.518l-.668-1.477a7.189 7.189 0 0 1 1.731-.628 7.968 7.968 0 0 1 1.775-.215c1.237 0 2.17.269 2.8.808.63.54.945 1.386.945 2.54V156h-1.477zm-3.076-1.406c.75 0 1.352-.21 1.806-.629.454-.419.681-1.006.681-1.762v-.844l-1.248.053c-.973.035-1.68.198-2.122.488-.443.29-.664.734-.664 1.331 0 .434.129.77.387 1.007.258.237.644.356 1.16.356zm11.355 1.582c-1.47 0-2.588-.43-3.353-1.288-.764-.858-1.147-2.09-1.147-3.696 0-1.634.4-2.891 1.2-3.77.8-.879 1.956-1.318 3.467-1.318 1.026 0 1.949.19 2.769.57l-.624 1.662c-.873-.34-1.594-.51-2.162-.51-1.682 0-2.523 1.116-2.523 3.349 0 1.09.21 1.908.629 2.456.419.548 1.032.822 1.841.822.92 0 1.79-.228 2.61-.685v1.801c-.369.217-.763.372-1.182.466-.419.094-.927.14-1.525.14zm6.988-5.309l1.169-1.459 2.935-3.129h2.382l-3.911 4.175 4.157 5.546h-2.426l-3.12-4.263-1.134.932V156h-2.047v-13.676h2.047v6.671l-.105 1.872h.053zm12.542 5.309c-1.512 0-2.694-.441-3.547-1.323-.852-.882-1.279-2.096-1.279-3.643 0-1.588.396-2.836 1.187-3.744.791-.908 1.878-1.362 3.26-1.362 1.284 0 2.298.39 3.042 1.168.744.78 1.116 1.852 1.116 3.217v1.116h-6.478c.03.944.285 1.669.765 2.176.48.507 1.157.76 2.03.76.575 0 1.11-.054 1.604-.163a8.408 8.408 0 0 0 1.596-.54v1.679c-.504.24-1.014.41-1.53.51-.515.099-1.104.149-1.766.149zm-.378-8.508c-.657 0-1.182.208-1.578.624-.395.416-.631 1.022-.707 1.82h4.412c-.012-.803-.205-1.411-.58-1.824-.375-.413-.891-.62-1.547-.62zm9.782 8.508c-1.213 0-2.16-.44-2.839-1.319-.68-.878-1.02-2.112-1.02-3.7 0-1.594.345-2.834 1.033-3.722.689-.888 1.642-1.331 2.861-1.331 1.277 0 2.25.471 2.918 1.415h.106c-.1-.698-.15-1.248-.15-1.653v-3.542h2.074V156h-1.617l-.36-1.274h-.097c-.662.966-1.632 1.45-2.91 1.45zm.554-1.67c.85 0 1.467-.239 1.854-.716.387-.478.586-1.253.598-2.325v-.29c0-1.225-.2-2.095-.598-2.61-.398-.516-1.022-.774-1.872-.774-.727 0-1.286.294-1.679.883-.392.59-.589 1.429-.589 2.518 0 1.079.19 1.9.572 2.466.38.565.952.848 1.714.848zM308.104 207.558c0 2.091-.522 3.717-1.568 4.878-1.046 1.16-2.527 1.74-4.443 1.74-1.94 0-3.43-.576-4.47-1.727-1.04-1.152-1.56-2.788-1.56-4.909s.523-3.75 1.57-4.887c1.045-1.136 2.538-1.705 4.477-1.705 1.91 0 3.387.577 4.43 1.732 1.043 1.154 1.564 2.78 1.564 4.878zm-9.808 0c0 1.582.32 2.781.958 3.599.639.817 1.585 1.226 2.839 1.226 1.248 0 2.19-.404 2.825-1.213.636-.809.954-2.013.954-3.612 0-1.577-.315-2.772-.945-3.586-.63-.815-1.569-1.222-2.817-1.222-1.26 0-2.21.407-2.852 1.222-.641.814-.962 2.01-.962 3.586zm20.32 6.442l-1.257-4.535c-.152-.48-.427-1.597-.826-3.349h-.079c-.34 1.582-.61 2.704-.808 3.366L314.354 214h-2.286l-2.724-9.72h2.11l1.238 4.79a33.3 33.3 0 0 1 .598 3.04h.053c.058-.427.148-.918.268-1.472.12-.554.224-.968.312-1.243l1.476-5.116h2.268l1.433 5.116c.087.287.197.726.33 1.318.131.592.209 1.052.232 1.38h.07c.088-.72.293-1.729.616-3.024l1.256-4.79h2.075L320.937 214h-2.32zm15.284 0h-2.074v-5.977c0-.75-.15-1.31-.452-1.678-.302-.37-.781-.554-1.437-.554-.874 0-1.512.258-1.916.773-.405.516-.607 1.38-.607 2.593V214h-2.065v-9.72h1.617l.29 1.274h.105c.293-.463.71-.82 1.248-1.073a4.182 4.182 0 0 1 1.793-.377c2.332 0 3.498 1.186 3.498 3.56V214zm13.325 0l-3.727-10.731h-.07c.1 1.593.15 3.087.15 4.482V214h-1.908v-12.85h2.962l3.568 10.222h.053l3.674-10.222h2.97V214h-2.021v-6.354c0-.64.016-1.471.048-2.497.033-1.025.06-1.646.084-1.863h-.07L349.079 214h-1.854zm16.919 0l-.414-1.354h-.07c-.469.592-.94.995-1.415 1.209-.474.214-1.084.32-1.828.32-.955 0-1.7-.257-2.237-.773-.536-.515-.804-1.245-.804-2.188 0-1.002.372-1.758 1.116-2.268.744-.51 1.878-.788 3.402-.835l1.678-.052v-.519c0-.621-.145-1.085-.435-1.393-.29-.308-.74-.461-1.349-.461-.498 0-.975.073-1.433.22-.457.146-.896.319-1.318.518l-.668-1.477a7.189 7.189 0 0 1 1.732-.628 7.968 7.968 0 0 1 1.775-.215c1.236 0 2.17.269 2.8.808.63.54.944 1.386.944 2.54V214h-1.476zm-3.077-1.406c.75 0 1.352-.21 1.807-.629.454-.419.68-1.006.68-1.762v-.844l-1.247.053c-.973.035-1.68.198-2.123.488-.442.29-.663.734-.663 1.331 0 .434.128.77.386 1.007.258.237.645.356 1.16.356zm12.367-8.49c.416 0 .758.029 1.028.087l-.202 1.925a3.904 3.904 0 0 0-.914-.105c-.826 0-1.496.27-2.009.808-.512.54-.769 1.24-.769 2.1V214h-2.065v-9.72h1.617l.273 1.713h.105c.322-.58.743-1.04 1.261-1.38a2.998 2.998 0 0 1 1.675-.51zm4.825 4.763l1.169-1.459 2.935-3.129h2.382l-3.911 4.175 4.157 5.546h-2.426l-3.12-4.263-1.133.932V214h-2.048v-13.676h2.048v6.671l-.106 1.872h.053zm12.542 5.309c-1.512 0-2.694-.441-3.547-1.323-.852-.882-1.278-2.096-1.278-3.643 0-1.588.395-2.836 1.186-3.744.791-.908 1.878-1.362 3.26-1.362 1.284 0 2.298.39 3.042 1.168.744.78 1.116 1.852 1.116 3.217v1.116h-6.477c.029.944.284 1.669.764 2.176.48.507 1.157.76 2.03.76.575 0 1.11-.054 1.604-.163a8.408 8.408 0 0 0 1.596-.54v1.679c-.504.24-1.014.41-1.53.51-.515.099-1.104.149-1.766.149zm-.378-8.508c-.656 0-1.182.208-1.578.624-.395.416-.631 1.022-.707 1.82h4.412c-.012-.803-.205-1.411-.58-1.824-.375-.413-.89-.62-1.547-.62zm10.125 6.838c.504 0 1.008-.08 1.512-.237v1.555a4.17 4.17 0 0 1-.884.25c-.36.068-.734.102-1.12.102-1.957 0-2.936-1.031-2.936-3.094v-5.238h-1.327v-.914l1.424-.756.703-2.057h1.274v2.162h2.769v1.565h-2.769v5.203c0 .498.125.866.374 1.103s.576.356.98.356zm8.385 1.67c-1.23 0-2.186-.443-2.866-1.327h-.123c.082.82.123 1.318.123 1.494v3.981h-2.065V204.28h1.67c.047.182.143.616.29 1.301h.105c.645-.984 1.612-1.476 2.9-1.476 1.214 0 2.158.439 2.835 1.318s1.015 2.112 1.015 3.7-.344 2.827-1.032 3.718c-.689.89-1.64 1.336-2.852 1.336zm-.501-8.385c-.82 0-1.42.24-1.798.72-.378.481-.567 1.249-.567 2.303v.308c0 1.184.188 2.04.563 2.57.375.531.987.796 1.837.796.715 0 1.265-.293 1.652-.879.387-.586.58-1.42.58-2.505 0-1.09-.192-1.914-.575-2.474-.384-.56-.948-.839-1.692-.839zm8.85 8.209h-2.065v-13.676h2.065V214zm9.035 0l-.413-1.354h-.07c-.469.592-.94.995-1.415 1.209-.475.214-1.084.32-1.828.32-.955 0-1.7-.257-2.237-.773-.536-.515-.804-1.245-.804-2.188 0-1.002.372-1.758 1.116-2.268.744-.51 1.878-.788 3.401-.835l1.68-.052v-.519c0-.621-.146-1.085-.436-1.393-.29-.308-.74-.461-1.35-.461-.497 0-.975.073-1.432.22-.457.146-.896.319-1.318.518l-.668-1.477a7.189 7.189 0 0 1 1.731-.628 7.968 7.968 0 0 1 1.776-.215c1.236 0 2.17.269 2.8.808.629.54.944 1.386.944 2.54V214h-1.477zm-3.076-1.406c.75 0 1.352-.21 1.806-.629.454-.419.682-1.006.682-1.762v-.844l-1.249.053c-.972.035-1.68.198-2.122.488-.442.29-.664.734-.664 1.331 0 .434.13.77.387 1.007.258.237.645.356 1.16.356zm11.356 1.582c-1.471 0-2.589-.43-3.353-1.288-.765-.858-1.147-2.09-1.147-3.696 0-1.634.4-2.891 1.2-3.77.8-.879 1.955-1.318 3.467-1.318 1.025 0 1.948.19 2.768.57l-.624 1.662c-.873-.34-1.594-.51-2.162-.51-1.682 0-2.522 1.116-2.522 3.349 0 1.09.21 1.908.628 2.456.419.548 1.033.822 1.841.822.92 0 1.79-.228 2.61-.685v1.801c-.368.217-.762.372-1.181.466-.42.094-.928.14-1.525.14zm9.237 0c-1.512 0-2.694-.441-3.546-1.323-.853-.882-1.28-2.096-1.28-3.643 0-1.588.396-2.836 1.187-3.744.791-.908 1.878-1.362 3.261-1.362 1.283 0 2.297.39 3.041 1.168.744.78 1.116 1.852 1.116 3.217v1.116h-6.477c.029.944.284 1.669.764 2.176.48.507 1.158.76 2.03.76.575 0 1.11-.054 1.605-.163a8.408 8.408 0 0 0 1.595-.54v1.679c-.504.24-1.014.41-1.53.51-.515.099-1.104.149-1.766.149zm-.378-8.508c-.656 0-1.182.208-1.578.624-.395.416-.63 1.022-.707 1.82h4.412c-.012-.803-.205-1.411-.58-1.824-.375-.413-.89-.62-1.547-.62zM303.965 272h-7.269v-12.85h7.269v1.776h-5.168v3.498h4.843v1.758h-4.843v4.034h5.168V272zm1.714-3.946v-1.758h4.517v1.758h-4.517zm11.566-5.95c.416 0 .759.029 1.028.087l-.202 1.925a3.904 3.904 0 0 0-.914-.105c-.826 0-1.495.27-2.008.808-.513.54-.77 1.24-.77 2.1V272h-2.065v-9.72h1.618l.272 1.713h.106c.322-.58.742-1.04 1.26-1.38a2.998 2.998 0 0 1 1.675-.51zm7.075 10.072c-1.511 0-2.694-.441-3.546-1.323-.853-.882-1.279-2.096-1.279-3.643 0-1.588.396-2.836 1.187-3.744.79-.908 1.878-1.362 3.26-1.362 1.284 0 2.297.39 3.041 1.168.745.78 1.117 1.852 1.117 3.217v1.116h-6.478c.03.944.284 1.669.765 2.176.48.507 1.157.76 2.03.76.574 0 1.109-.054 1.604-.163a8.408 8.408 0 0 0 1.595-.54v1.679c-.504.24-1.013.41-1.53.51-.515.099-1.104.149-1.766.149zm-.378-8.508c-.656 0-1.182.208-1.577.624-.396.416-.632 1.022-.708 1.82h4.412c-.011-.803-.205-1.411-.58-1.824-.375-.413-.89-.62-1.547-.62zm13.035 5.563c0 .95-.346 1.678-1.038 2.185-.691.506-1.681.76-2.97.76-1.295 0-2.335-.197-3.12-.59v-1.783c1.142.527 2.206.79 3.19.79 1.272 0 1.907-.383 1.907-1.15a.912.912 0 0 0-.21-.616c-.141-.164-.373-.334-.695-.51-.322-.175-.77-.375-1.345-.597-1.119-.434-1.876-.867-2.272-1.301-.395-.434-.593-.996-.593-1.688 0-.832.336-1.478 1.006-1.938.671-.46 1.584-.69 2.738-.69 1.143 0 2.224.232 3.243.695l-.668 1.556c-1.048-.434-1.93-.65-2.645-.65-1.09 0-1.635.31-1.635.93 0 .305.142.563.426.774.285.211.904.501 1.86.87.802.31 1.385.595 1.748.853.364.258.633.555.809.892.176.337.264.74.264 1.208zm4.297 2.769h-2.065v-9.72h2.065V272zm-2.188-12.296c0-.369.101-.653.303-.852.202-.2.49-.3.866-.3.363 0 .646.1.848.3.202.199.303.483.303.852 0 .352-.1.629-.303.83-.202.203-.485.304-.848.304-.375 0-.664-.101-.866-.303-.202-.202-.303-.48-.303-.83zm8.42 12.472c-1.213 0-2.16-.44-2.839-1.319-.68-.878-1.02-2.112-1.02-3.7 0-1.594.345-2.834 1.033-3.722.689-.888 1.642-1.331 2.861-1.331 1.277 0 2.25.471 2.918 1.415h.105c-.1-.698-.149-1.248-.149-1.653v-3.542h2.074V272h-1.617l-.36-1.274h-.097c-.662.966-1.632 1.45-2.91 1.45zm.554-1.67c.85 0 1.467-.239 1.854-.716.387-.478.586-1.253.598-2.325v-.29c0-1.225-.2-2.095-.598-2.61-.398-.516-1.022-.774-1.872-.774-.727 0-1.286.294-1.679.883-.392.59-.589 1.429-.589 2.518 0 1.079.19 1.9.572 2.466.38.565.952.848 1.714.848zm11.627 1.67c-1.511 0-2.693-.441-3.546-1.323-.852-.882-1.279-2.096-1.279-3.643 0-1.588.396-2.836 1.187-3.744.79-.908 1.878-1.362 3.26-1.362 1.284 0 2.297.39 3.042 1.168.744.78 1.116 1.852 1.116 3.217v1.116h-6.478c.03.944.284 1.669.765 2.176.48.507 1.157.76 2.03.76.574 0 1.11-.054 1.604-.163a8.408 8.408 0 0 0 1.595-.54v1.679c-.504.24-1.013.41-1.529.51-.516.099-1.104.149-1.767.149zm-.377-8.508c-.657 0-1.183.208-1.578.624-.396.416-.631 1.022-.708 1.82h4.413c-.012-.803-.206-1.411-.58-1.824-.376-.413-.891-.62-1.547-.62zM374.365 272h-2.074v-5.977c0-.75-.15-1.31-.453-1.678-.301-.37-.78-.554-1.437-.554-.873 0-1.511.258-1.916.773-.404.516-.606 1.38-.606 2.593V272h-2.066v-9.72h1.618l.29 1.274h.105c.293-.463.71-.82 1.248-1.073a4.182 4.182 0 0 1 1.793-.377c2.332 0 3.498 1.186 3.498 3.56V272zm6.794.176c-1.47 0-2.588-.43-3.353-1.288-.764-.858-1.147-2.09-1.147-3.696 0-1.634.4-2.891 1.2-3.77.8-.879 1.955-1.318 3.467-1.318 1.026 0 1.948.19 2.769.57l-.624 1.662c-.873-.34-1.594-.51-2.162-.51-1.682 0-2.523 1.116-2.523 3.349 0 1.09.21 1.908.629 2.456.418.548 1.032.822 1.84.822.92 0 1.79-.228 2.611-.685v1.801c-.369.217-.763.372-1.182.466-.419.094-.927.14-1.525.14zm9.237 0c-1.511 0-2.693-.441-3.546-1.323-.852-.882-1.279-2.096-1.279-3.643 0-1.588.396-2.836 1.187-3.744.79-.908 1.878-1.362 3.26-1.362 1.284 0 2.297.39 3.042 1.168.744.78 1.116 1.852 1.116 3.217v1.116h-6.478c.03.944.284 1.669.765 2.176.48.507 1.157.76 2.03.76.574 0 1.109-.054 1.604-.163a8.408 8.408 0 0 0 1.595-.54v1.679c-.504.24-1.013.41-1.529.51-.516.099-1.104.149-1.767.149zm-.377-8.508c-.657 0-1.183.208-1.578.624-.396.416-.631 1.022-.708 1.82h4.413c-.012-.803-.206-1.411-.58-1.824-.376-.413-.891-.62-1.547-.62zM401.418 272v-12.85h2.1V272h-2.1zm8.552.176c-1.213 0-2.16-.44-2.84-1.319-.679-.878-1.019-2.112-1.019-3.7 0-1.594.345-2.834 1.033-3.722.689-.888 1.642-1.331 2.86-1.331 1.278 0 2.25.471 2.919 1.415h.105c-.1-.698-.15-1.248-.15-1.653v-3.542h2.075V272h-1.617l-.36-1.274h-.097c-.662.966-1.632 1.45-2.91 1.45zm.553-1.67c.85 0 1.468-.239 1.855-.716.387-.478.586-1.253.598-2.325v-.29c0-1.225-.2-2.095-.598-2.61-.399-.516-1.023-.774-1.872-.774-.727 0-1.286.294-1.679.883-.392.59-.589 1.429-.589 2.518 0 1.079.19 1.9.572 2.466.38.565.952.848 1.713.848zm11.628 1.67c-1.511 0-2.693-.441-3.546-1.323-.853-.882-1.279-2.096-1.279-3.643 0-1.588.396-2.836 1.187-3.744.79-.908 1.878-1.362 3.26-1.362 1.284 0 2.297.39 3.041 1.168.745.78 1.117 1.852 1.117 3.217v1.116h-6.478c.03.944.284 1.669.765 2.176.48.507 1.157.76 2.03.76.574 0 1.109-.054 1.604-.163a8.408 8.408 0 0 0 1.595-.54v1.679c-.504.24-1.013.41-1.529.51-.516.099-1.105.149-1.767.149zm-.378-8.508c-.656 0-1.182.208-1.577.624-.396.416-.632 1.022-.708 1.82h4.412c-.011-.803-.205-1.411-.58-1.824-.375-.413-.89-.62-1.547-.62zM436.83 272h-2.074v-5.977c0-.75-.151-1.31-.453-1.678-.302-.37-.78-.554-1.437-.554-.873 0-1.511.258-1.916.773-.404.516-.606 1.38-.606 2.593V272h-2.066v-9.72h1.618l.29 1.274h.105c.293-.463.709-.82 1.248-1.073a4.182 4.182 0 0 1 1.793-.377c2.332 0 3.498 1.186 3.498 3.56V272zm6.495-1.494c.504 0 1.008-.08 1.512-.237v1.555a4.17 4.17 0 0 1-.883.25c-.36.068-.734.102-1.121.102-1.957 0-2.936-1.031-2.936-3.094v-5.238h-1.327v-.914l1.424-.756.703-2.057h1.275v2.162h2.768v1.565h-2.768v5.203c0 .498.124.866.373 1.103.25.237.576.356.98.356zm5.52 1.494h-2.066v-9.72h2.066V272zm-2.189-12.296c0-.369.101-.653.303-.852.203-.2.491-.3.866-.3.364 0 .646.1.848.3.203.199.304.483.304.852 0 .352-.101.629-.304.83-.202.203-.484.304-.848.304-.375 0-.663-.101-.866-.303-.202-.202-.303-.48-.303-.83zm8.763 10.802c.504 0 1.008-.08 1.512-.237v1.555a4.17 4.17 0 0 1-.884.25c-.36.068-.733.102-1.12.102-1.957 0-2.936-1.031-2.936-3.094v-5.238h-1.327v-.914l1.424-.756.703-2.057h1.274v2.162h2.769v1.565h-2.769v5.203c0 .498.125.866.374 1.103s.576.356.98.356zm1.978-8.227h2.25l1.977 5.511c.299.785.498 1.523.598 2.215h.07c.053-.322.15-.713.29-1.173.14-.46.885-2.644 2.232-6.553h2.233l-4.157 11.013c-.756 2.021-2.016 3.032-3.78 3.032-.457 0-.902-.05-1.336-.15v-1.634c.311.07.665.106 1.064.106.996 0 1.696-.578 2.1-1.732l.36-.914-3.901-9.72zM306.83 388h-2.11v-5.792h-5.923V388h-2.1v-12.85h2.1v5.256h5.924v-5.256h2.11V388zm5.23 0h-2.066v-9.72h2.066V388zm-2.189-12.296c0-.369.101-.653.303-.852.202-.2.491-.3.866-.3.363 0 .646.1.848.3.202.199.303.483.303.852 0 .352-.1.629-.303.83-.202.203-.485.304-.848.304-.375 0-.664-.101-.866-.303-.202-.202-.303-.48-.303-.83zm13.35 2.575v1.134l-1.66.308a2.982 2.982 0 0 1 .527 1.705c0 1.002-.346 1.79-1.037 2.364-.692.574-1.644.861-2.857.861-.31 0-.591-.023-.843-.07-.446.275-.668.598-.668.967 0 .223.104.39.312.5.208.112.59.168 1.147.168h1.696c1.072 0 1.887.228 2.443.685.557.457.835 1.117.835 1.978 0 1.101-.454 1.951-1.362 2.549-.908.597-2.22.896-3.938.896-1.324 0-2.335-.234-3.032-.703-.697-.469-1.046-1.137-1.046-2.004 0-.597.19-1.1.567-1.507.378-.407.907-.69 1.587-.848a1.552 1.552 0 0 1-.682-.567 1.431 1.431 0 0 1-.268-.822c0-.363.103-.67.308-.923.205-.252.51-.5.914-.747a2.707 2.707 0 0 1-1.226-1.059c-.313-.49-.47-1.062-.47-1.718 0-1.055.332-1.872.997-2.452.665-.58 1.613-.87 2.844-.87.275 0 .564.019.865.057.302.038.53.077.681.118h3.367zm-7.637 11.233c0 .445.2.788.602 1.028.401.24.965.36 1.692.36 1.125 0 1.963-.16 2.514-.483.55-.322.826-.75.826-1.283 0-.422-.151-.722-.453-.901-.302-.179-.863-.268-1.683-.268h-1.564c-.592 0-1.062.139-1.411.417-.349.279-.523.655-.523 1.13zm.888-8.086c0 .61.156 1.078.47 1.406.313.328.763.492 1.349.492 1.195 0 1.793-.638 1.793-1.916 0-.633-.148-1.12-.444-1.463-.296-.343-.745-.514-1.349-.514-.598 0-1.05.17-1.358.51-.308.34-.461.834-.461 1.485zM333.575 388h-2.074v-5.977c0-.75-.15-1.31-.453-1.678-.301-.37-.78-.554-1.437-.554-.867 0-1.504.26-1.911.778-.408.518-.611 1.387-.611 2.606V388h-2.066v-13.676h2.066v3.472c0 .557-.035 1.151-.106 1.784h.132a2.868 2.868 0 0 1 1.174-1.09c.5-.258 1.085-.386 1.753-.386 2.355 0 3.533 1.186 3.533 3.56V388zm15.179-3.49c0 1.143-.413 2.04-1.24 2.69-.826.65-1.965.976-3.418.976s-2.643-.226-3.569-.677v-1.986a9.699 9.699 0 0 0 1.868.65c.66.158 1.273.237 1.841.237.832 0 1.446-.158 1.842-.474.395-.317.593-.741.593-1.275 0-.48-.182-.887-.545-1.221-.363-.334-1.113-.73-2.25-1.187-1.172-.474-1.998-1.016-2.479-1.626-.48-.61-.72-1.342-.72-2.197 0-1.072.38-1.916 1.142-2.531.762-.616 1.785-.923 3.068-.923 1.23 0 2.455.27 3.674.808l-.668 1.714c-1.143-.48-2.163-.72-3.059-.72-.68 0-1.195.148-1.547.443-.351.296-.527.687-.527 1.174 0 .334.07.62.21.857.141.237.373.461.695.672.322.211.902.49 1.74.835.944.393 1.635.759 2.074 1.099.44.34.762.723.967 1.151.205.428.308.932.308 1.512zm6.513 3.666c-1.512 0-2.694-.441-3.547-1.323-.852-.882-1.279-2.096-1.279-3.643 0-1.588.396-2.836 1.187-3.744.79-.908 1.878-1.362 3.26-1.362 1.284 0 2.298.39 3.042 1.168.744.78 1.116 1.852 1.116 3.217v1.116h-6.478c.03.944.285 1.669.765 2.176.48.507 1.157.76 2.03.76.575 0 1.11-.054 1.604-.163a8.408 8.408 0 0 0 1.596-.54v1.679c-.504.24-1.014.41-1.53.51-.515.099-1.104.149-1.766.149zm-.378-8.508c-.657 0-1.182.208-1.578.624-.395.416-.631 1.022-.707 1.82h4.412c-.012-.803-.205-1.411-.58-1.824-.375-.413-.891-.62-1.547-.62zm10.423 8.508c-1.47 0-2.588-.43-3.353-1.288-.764-.858-1.147-2.09-1.147-3.696 0-1.634.4-2.891 1.2-3.77.8-.879 1.956-1.318 3.467-1.318 1.026 0 1.949.19 2.769.57l-.624 1.662c-.873-.34-1.594-.51-2.162-.51-1.682 0-2.523 1.116-2.523 3.349 0 1.09.21 1.908.629 2.456.419.548 1.033.822 1.841.822.92 0 1.79-.228 2.61-.685v1.801c-.369.217-.763.372-1.182.466-.419.094-.927.14-1.524.14zM377.16 388l-.29-1.274h-.105c-.287.45-.696.805-1.226 1.063-.53.258-1.136.387-1.815.387-1.178 0-2.057-.293-2.637-.88-.58-.585-.87-1.473-.87-2.662v-6.355h2.083v5.994c0 .745.152 1.303.457 1.675.305.372.782.558 1.432.558.868 0 1.505-.26 1.912-.778.407-.519.61-1.387.61-2.606v-4.843h2.075V388h-1.626zm9.501-9.896c.416 0 .759.029 1.028.087l-.202 1.925a3.904 3.904 0 0 0-.914-.105c-.826 0-1.495.27-2.008.808-.513.54-.77 1.24-.77 2.1V388h-2.065v-9.72h1.618l.272 1.713h.106c.322-.58.742-1.04 1.26-1.38a2.998 2.998 0 0 1 1.675-.51zm4.896 9.896h-2.066v-9.72h2.066V388zm-2.189-12.296c0-.369.101-.653.303-.852.203-.2.491-.3.866-.3.363 0 .646.1.848.3.202.199.303.483.303.852 0 .352-.1.629-.303.83-.202.203-.485.304-.848.304-.375 0-.663-.101-.866-.303-.202-.202-.303-.48-.303-.83zm8.763 10.802c.504 0 1.008-.08 1.512-.237v1.555a4.17 4.17 0 0 1-.884.25c-.36.068-.734.102-1.12.102-1.957 0-2.936-1.031-2.936-3.094v-5.238h-1.327v-.914l1.424-.756.703-2.057h1.274v2.162h2.769v1.565h-2.769v5.203c0 .498.125.866.374 1.103s.576.356.98.356zm1.977-8.227h2.25l1.978 5.511c.299.785.498 1.523.598 2.215h.07c.053-.322.15-.713.29-1.173.14-.46.885-2.644 2.232-6.553h2.233l-4.157 11.013c-.756 2.021-2.016 3.032-3.78 3.032-.457 0-.902-.05-1.336-.15v-1.634c.31.07.665.106 1.064.106.996 0 1.696-.578 2.1-1.732l.36-.914-3.902-9.72zM303.965 330h-7.269v-12.85h7.269v1.776h-5.168v3.498h4.843v1.758h-4.843v4.034h5.168V330zm11.11 0H313v-5.977c0-.75-.15-1.31-.453-1.678-.301-.37-.78-.554-1.437-.554-.873 0-1.511.258-1.916.773-.404.516-.606 1.38-.606 2.593V330h-2.066v-9.72h1.618l.29 1.274h.105c.293-.463.71-.82 1.248-1.073a4.182 4.182 0 0 1 1.793-.377c2.332 0 3.498 1.186 3.498 3.56V330zm6.494-1.494c.504 0 1.008-.08 1.512-.237v1.555a4.17 4.17 0 0 1-.883.25c-.36.068-.734.102-1.12.102-1.958 0-2.936-1.031-2.936-3.094v-5.238h-1.328v-.914l1.424-.756.703-2.057h1.275v2.162h2.768v1.565h-2.768v5.203c0 .498.124.866.373 1.103.25.237.576.356.98.356zm7.7 1.67c-1.512 0-2.694-.441-3.547-1.323-.852-.882-1.279-2.096-1.279-3.643 0-1.588.396-2.836 1.187-3.744.79-.908 1.878-1.362 3.26-1.362 1.284 0 2.297.39 3.042 1.168.744.78 1.116 1.852 1.116 3.217v1.116h-6.478c.03.944.284 1.669.765 2.176.48.507 1.157.76 2.03.76.574 0 1.11-.054 1.604-.163a8.408 8.408 0 0 0 1.595-.54v1.679c-.503.24-1.013.41-1.529.51-.515.099-1.104.149-1.766.149zm-.378-8.508c-.657 0-1.183.208-1.578.624-.396.416-.631 1.022-.708 1.82h4.413c-.012-.803-.205-1.411-.58-1.824-.376-.413-.891-.62-1.547-.62zm11.434-1.564c.416 0 .759.029 1.029.087l-.203 1.925a3.904 3.904 0 0 0-.914-.105c-.826 0-1.495.27-2.008.808-.513.54-.769 1.24-.769 2.1V330h-2.065v-9.72h1.617l.272 1.713h.106c.322-.58.742-1.04 1.26-1.38a2.998 2.998 0 0 1 1.675-.51zm7.76 10.072c-1.23 0-2.185-.443-2.864-1.327h-.123c.082.82.123 1.318.123 1.494v3.981h-2.066V320.28h1.67c.047.182.144.616.29 1.301h.106c.644-.984 1.611-1.476 2.9-1.476 1.213 0 2.158.439 2.835 1.318.676.879 1.015 2.112 1.015 3.7s-.345 2.827-1.033 3.718c-.688.89-1.64 1.336-2.852 1.336zm-.5-8.385c-.82 0-1.42.24-1.797.72-.378.481-.567 1.249-.567 2.303v.308c0 1.184.187 2.04.562 2.57.375.531.988.796 1.837.796.715 0 1.266-.293 1.652-.879.387-.586.58-1.42.58-2.505 0-1.09-.191-1.914-.575-2.474-.384-.56-.948-.839-1.692-.839zm11.716-1.687c.416 0 .759.029 1.028.087l-.202 1.925a3.904 3.904 0 0 0-.914-.105c-.826 0-1.496.27-2.008.808-.513.54-.77 1.24-.77 2.1V330h-2.065v-9.72h1.617l.273 1.713h.105c.323-.58.743-1.04 1.261-1.38a2.998 2.998 0 0 1 1.675-.51zm4.895 9.896h-2.065v-9.72h2.065V330zm-2.188-12.296c0-.369.1-.653.303-.852.202-.2.49-.3.866-.3.363 0 .646.1.848.3.202.199.303.483.303.852 0 .352-.1.629-.303.83-.202.203-.485.304-.848.304-.375 0-.664-.101-.866-.303-.202-.202-.303-.48-.303-.83zm11.672 9.527c0 .95-.346 1.678-1.037 2.185-.692.506-1.682.76-2.971.76-1.295 0-2.335-.197-3.12-.59v-1.783c1.142.527 2.206.79 3.19.79 1.272 0 1.907-.383 1.907-1.15a.912.912 0 0 0-.21-.616c-.141-.164-.373-.334-.695-.51-.322-.175-.77-.375-1.345-.597-1.119-.434-1.876-.867-2.272-1.301-.395-.434-.593-.996-.593-1.688 0-.832.336-1.478 1.007-1.938.67-.46 1.583-.69 2.737-.69 1.143 0 2.224.232 3.243.695l-.667 1.556c-1.05-.434-1.931-.65-2.646-.65-1.09 0-1.635.31-1.635.93 0 .305.142.563.427.774.284.211.903.501 1.858.87.803.31 1.386.595 1.75.853.363.258.632.555.808.892.176.337.264.74.264 1.208zm6.477 2.945c-1.511 0-2.694-.441-3.546-1.323-.853-.882-1.279-2.096-1.279-3.643 0-1.588.396-2.836 1.187-3.744.79-.908 1.877-1.362 3.26-1.362 1.284 0 2.297.39 3.041 1.168.744.78 1.117 1.852 1.117 3.217v1.116h-6.478c.03.944.284 1.669.765 2.176.48.507 1.157.76 2.03.76.574 0 1.109-.054 1.604-.163a8.408 8.408 0 0 0 1.595-.54v1.679c-.504.24-1.014.41-1.53.51-.515.099-1.104.149-1.766.149zm-.378-8.508c-.656 0-1.182.208-1.577.624-.396.416-.632 1.022-.708 1.82h4.412c-.011-.803-.205-1.411-.58-1.824-.375-.413-.89-.62-1.547-.62zm13.5 1.459h1.46c.978 0 1.687-.182 2.126-.545.44-.363.66-.902.66-1.617 0-.727-.238-1.248-.712-1.565-.475-.316-1.19-.474-2.145-.474h-1.389v4.201zm0 1.74V330h-2.1v-12.85h3.63c1.658 0 2.885.31 3.682.932.797.621 1.196 1.559 1.196 2.813 0 1.6-.832 2.739-2.497 3.418l3.63 5.687h-2.39l-3.076-5.133h-2.075zm13.43 5.309c-1.512 0-2.694-.441-3.546-1.323-.853-.882-1.28-2.096-1.28-3.643 0-1.588.396-2.836 1.187-3.744.791-.908 1.878-1.362 3.261-1.362 1.283 0 2.297.39 3.041 1.168.744.78 1.116 1.852 1.116 3.217v1.116h-6.477c.029.944.284 1.669.764 2.176.48.507 1.158.76 2.03.76.575 0 1.11-.054 1.605-.163a8.408 8.408 0 0 0 1.595-.54v1.679c-.504.24-1.014.41-1.53.51-.515.099-1.104.149-1.766.149zm-.378-8.508c-.656 0-1.182.208-1.578.624-.395.416-.63 1.022-.707 1.82h4.412c-.012-.803-.205-1.411-.58-1.824-.375-.413-.89-.62-1.547-.62zM418.917 330l-.413-1.354h-.07c-.47.592-.94.995-1.415 1.209-.475.214-1.084.32-1.829.32-.955 0-1.7-.257-2.236-.773-.537-.515-.805-1.245-.805-2.188 0-1.002.372-1.758 1.117-2.268.744-.51 1.878-.788 3.401-.835l1.679-.052v-.519c0-.621-.145-1.085-.435-1.393-.29-.308-.74-.461-1.35-.461-.498 0-.975.073-1.432.22-.457.146-.897.319-1.318.518l-.668-1.477a7.189 7.189 0 0 1 1.731-.628 7.968 7.968 0 0 1 1.775-.215c1.237 0 2.17.269 2.8.808.63.54.945 1.386.945 2.54V330h-1.477zm-3.076-1.406c.75 0 1.352-.21 1.806-.629.454-.419.681-1.006.681-1.762v-.844l-1.248.053c-.973.035-1.68.198-2.122.488-.443.29-.664.734-.664 1.331 0 .434.129.77.387 1.007.257.237.644.356 1.16.356zm10.714 1.582c-1.213 0-2.16-.44-2.84-1.319-.679-.878-1.019-2.112-1.019-3.7 0-1.594.345-2.834 1.033-3.722.688-.888 1.642-1.331 2.86-1.331 1.278 0 2.25.471 2.919 1.415h.105c-.1-.698-.15-1.248-.15-1.653v-3.542h2.075V330h-1.617l-.36-1.274h-.097c-.662.966-1.632 1.45-2.91 1.45zm.553-1.67c.85 0 1.468-.239 1.855-.716.387-.478.586-1.253.598-2.325v-.29c0-1.225-.2-2.095-.598-2.61-.399-.516-1.023-.774-1.872-.774-.727 0-1.286.294-1.679.883-.392.59-.589 1.429-.589 2.518 0 1.079.19 1.9.572 2.466.38.565.952.848 1.713.848zm5.907-8.227h2.25l1.977 5.511c.299.785.498 1.523.598 2.215h.07c.053-.322.15-.713.29-1.173.14-.46.885-2.644 2.233-6.553h2.232l-4.157 11.013c-.756 2.021-2.016 3.032-3.78 3.032-.457 0-.902-.05-1.335-.15v-1.634c.31.07.665.106 1.063.106.996 0 1.696-.578 2.1-1.732l.361-.914-3.902-9.72z"/>
    </g>
</svg>
